<?xml version="1.0" encoding="utf-8"?>
<!-- Svg Vector Icons : http://www.onlinewebfonts.com/icon -->
<!DOCTYPE svg PUBLIC "-//W3C//DTD SVG 1.1//EN" "http://www.w3.org/Graphics/SVG/1.1/DTD/svg11.dtd">
<svg version="1.1" xmlns="http://www.w3.org/2000/svg" xmlns:xlink="http://www.w3.org/1999/xlink" x="0px" y="0px" viewBox="0 0 1000 1000" enable-background="new 0 0 1000 1000" xml:space="preserve">
<metadata> Svg Vector Icons : http://www.onlinewebfonts.com/icon </metadata>
<g><g transform="translate(0.000000,511.000000) scale(0.100000,-0.100000)"><path d="M1012.9,4972.3c-39.7-18.8-93.9-66.8-119-106.5l-48-71V636.2v-4158.6l48-71c100.2-150.3,39.7-144.1,1507.3-139.9l1313.1,6.3l27.1,52.2c20.9,41.7,20.9,60.6-2.1,93.9c-27.1,41.7-54.3,41.7-1350.7,52.2l-1323.6,10.4V636.2v4154.4l3014.6,6.3c2210.8,2.1,3020.8-2.1,3041.7-18.8c25.1-20.9,29.2-423.8,29.2-2398.7c0-2329.8,0-2373.7,41.8-2411.3c52.2-48,142-27.1,156.6,37.6c6.3,25,8.4,1116.9,6.3,2425.9l-6.3,2379.9l-45.9,64.7c-102.3,144,131.5,133.6-3204.6,133.6C1271.8,5009.8,1081.8,5007.7,1012.9,4972.3z"/><path d="M5104.7,4300c-39.7-39.7-41.7-68.9-41.7-987.5c0-891.4,2.1-949.9,37.6-981.2c35.5-31.3,116.9-35.5,736.9-35.5c515.7,0,705.7,6.3,724.4,25.1c18.8,18.8,25.1,267.2,25.1,987.5c0,908.1-2.1,966.6-37.6,997.9c-35.5,31.3-114.8,35.5-720.2,35.5C5173.6,4341.8,5144.4,4339.7,5104.7,4300z M6378.2,3318.8v-814.2h-553.2h-553.2v799.6c0,440.5,6.3,807.9,14.6,814.2c6.3,8.3,256.8,14.6,553.2,14.6h538.6V3318.8z"/><path d="M2403.3,3389.8c-43.8-43.8-41.8-98.1,4.2-139.9c35.5-31.3,129.4-35.5,929-35.5c864.3,0,893.5,2.1,933.2,41.8c50.1,50.1,50.1,60.5,8.3,121.1l-31.3,45.9h-906C2545.2,3423.2,2432.5,3419,2403.3,3389.8z"/><path d="M1643.4,1707.1c-39.7-39.7-31.3-137.8,14.6-162.8c27.1-14.6,830.9-20.9,2453-20.9c2162.8,0,2413.3,4.2,2442.6,33.4c39.7,37.6,43.8,114.8,8.3,150.3C6526.4,1742.6,1678.8,1742.6,1643.4,1707.1z"/><path d="M1643.4,287.5c-39.7-39.7-31.3-137.8,14.6-162.8c27.1-14.6,828.8-20.9,2450.9-20.9c2306.9,0,2411.2,2.1,2442.6,37.6c41.8,45.9,45.9,110.7,10.4,146.1S1678.8,323,1643.4,287.5z"/><path d="M6973.2-489.1c-125.3-58.4-181.6-116.9-240.1-248.4l-43.8-98.1l-66.8,35.5c-102.3,54.3-294.4,48-417.5-12.5c-108.6-52.2-219.2-181.6-238-277.7l-10.4-56.4l-81.4,41.8c-112.8,56.4-250.5,71-363.3,39.7c-116.9-33.4-271.4-164.9-306.9-261c-12.5-39.7-31.3-73.1-39.6-73.1c-8.4,0-106.5,114.8-217.1,256.8c-359.1,448.9-428,503.1-647.2,503.1c-342.4,0-580.4-346.5-455.1-659.7c20.9-52.2,352.8-484.3,785-1025c411.3-515.7,743.2-941.6,736.9-947.8c-6.3-6.3-179.5,4.2-386.2,23c-432.1,37.6-515.7,25-663.9-100.2c-215-185.8-225.5-492.7-20.9-701.4c106.5-108.6,202.5-139.9,557.4-177.4c922.7-94,1428-210.9,2108.5-482.2c175.4-71,219.2-79.3,386.2-79.3c162.8-2.1,202.5,4.2,302.7,54.3c62.6,31.3,363.3,256.8,668,501c592.9,478.1,672.2,561.6,774.5,824.6c96.1,250.5,75.2,620-52.2,893.5c-50.1,108.6-1469.7,1899.8-1563.7,1974.9C7338.5-432.7,7136-411.8,6973.2-489.1z M7303-681.1c98.1-48,1511.5-1822.5,1580.4-1985.4c45.9-106.5,52.2-152.4,52.2-361.2c0-227.6-4.2-246.3-66.8-375.8c-35.5-75.1-96-171.2-135.7-212.9c-91.8-102.3-1068.9-883.1-1164.9-929c-50.1-27.1-119-37.6-229.6-35.5c-142,0-183.7,12.5-469.7,129.4C6371.9-4249,5831.2-4130,4958.6-4029.7c-467.6,52.2-461.4,52.2-532.4,125.3c-127.3,131.5-81.4,367.4,85.6,440.5c87.7,39.7,98.1,39.7,534.4-2.1c244.3-23,484.4-41.8,532.4-41.8c93.9,0,152.4,39.7,152.4,106.5c0,20.9-375.8,507.3-833,1081.4c-457.2,572-843.4,1062.6-858,1087.7c-14.6,29.2-20.9,87.7-14.6,144c20.9,183.7,221.3,298.6,384.1,219.2c60.5-31.3,238-238,780.8-916.5c386.2-482.3,722.3-889.3,747.4-903.9c37.6-27.2,50.1-25,96,4.2c100.2,64.7,75.1,114.8-273.5,549.1c-179.6,223.4-344.5,438.4-367.4,478.1c-131.5,223.4,144.1,496.9,377.9,373.7c33.4-16.7,217.1-227.6,411.2-469.7c192.1-240.1,367.4-442.6,386.2-448.8c50.1-16.7,116.9,20.9,133.6,73.1c16.7,54.3,0,81.4-304.8,463.5c-164.9,206.7-250.5,331.9-258.9,379.9c-27.1,137.8,93.9,294.4,246.3,319.4c135.7,20.9,198.3-29.2,494.8-398.8c233.8-290.2,288.1-346.5,334-346.5c29.2,0,64.7,10.4,79.3,25c58.5,58.5,25.1,131.5-158.7,361.2c-219.2,271.4-233.8,298.5-233.8,396.7C6900.1-716.6,7113-585.1,7303-681.1z"/><path d="M1643.4-1132.1c-14.6-14.6-25.1-52.2-25.1-83.5c0-43.8,12.5-64.7,54.3-79.3c31.3-12.5,386.2-20.9,860.1-20.9c699.4,0,816.3,4.2,855.9,33.4c50.1,35.5,60.6,110.6,20.9,150.3C3374-1096.6,1678.8-1096.6,1643.4-1132.1z"/><path d="M1666.3-2526.6c-54.3-20.9-66.8-119-23-162.8c18.8-18.8,350.7-25,1365.3-25c1446.7,0,1398.7-4.2,1382,108.6c-14.6,98.1-27.1,100.2-1394.6,98.1C2282.2-2507.9,1691.4-2516.2,1666.3-2526.6z"/></g></g>
</svg>