<?xml version="1.0" encoding="utf-8"?>

<!DOCTYPE svg PUBLIC "-//W3C//DTD SVG 1.1//EN" "http://www.w3.org/Graphics/SVG/1.1/DTD/svg11.dtd">
<svg version="1.1" id="Desk_Laptop" xmlns="http://www.w3.org/2000/svg" xmlns:xlink="http://www.w3.org/1999/xlink" x="0px"
	 y="0px" viewBox="0 0 1141.0521 1621.6985" enable-background="new 0 0 1141.0521 1621.6985" xml:space="preserve">
<g>
	<rect x="76.6478" y="873.5776" fill="#D6AF8D" width="987.7612" height="737.2717"/>
	<path fill="#EDD6C4" d="M759.6499,304.1273c0,129.3098-95.4745,234.1476-213.1835,234.1476
		c-117.741,0-213.1557-104.8377-213.1557-234.1476c0-129.3372,46.4713-231.6454,213.1557-231.6454
		C721.598,72.4819,759.6499,174.7901,759.6499,304.1273z"/>
	<path fill="#231F20" d="M505.6757,363.2856c0,7.6487-6.2195,13.8452-13.8517,13.8452c-7.6322,0-13.8932-6.1964-13.8932-13.8452
		c0-7.6483,6.261-13.8423,13.8932-13.8423C499.4562,349.4433,505.6757,355.6373,505.6757,363.2856z"/>
	<path fill="#231F20" d="M620.2086,363.2856c0,7.6487-6.1965,13.8452-13.8381,13.8452c-7.669,0-13.8192-6.1964-13.8192-13.8452
		c0-7.6483,6.1502-13.8423,13.8192-13.8423C614.0121,349.4433,620.2086,355.6373,620.2086,363.2856z"/>
	<line fill="#231F20" x1="535.8696" y1="412.3741" x2="571.1224" y2="412.3741"/>
	<path fill="#4E97A8" d="M243.8158,764.8726c0,0-41.799-347.8238,137.7062-312.3867
		c179.5141,35.4276,23.4313,312.3867,23.4313,312.3867H243.8158z"/>
	<path fill="#4E97A8" d="M869.579,764.8726c0,0,41.7485-347.8238-137.7335-312.3867
		c-179.5419,35.4276-23.436,312.3867-23.436,312.3867H869.579z"/>
	<polygon opacity="0.1" fill="#C08757" points="1064.4091,972.5413 76.6478,923.9388 76.6478,815.2291 1064.4091,815.2291 	"/>
	<rect x="7.6337" y="764.8726" fill="#C08757" width="1125.7848" height="108.705"/>
	<path fill="#CED1D1" d="M794.5712,704.4392c5.9108,60.4334-10.1042,60.4334-60.3871,60.4334H381.4206
		c-60.415,0-60.415-27.0681-60.415-60.4334V496.3147c0-60.4287,0-60.4287,60.415-60.4287h352.7635
		c60.3871,0,60.3871,6.7116,60.3871,60.4287V704.4392z"/>
	<path fill="#6E615C" d="M334.0885,276.3988c0,0,54.9644-115.7984,80.532-115.7984c25.5719,0,91.0552,15.1038,126.2896,15.1038
		c35.2528,0,94.3513-13.4327,112.6359-18.4483c18.2988-5.034,87.1333,114.9216,101.611,78.8817
		c12.9217-32.2076,4.4929-225.3547-219.2875-225.2883C357.1884,10.9162,310.4408,139.8503,334.0885,276.3988z"/>
	<path fill="#FFFFFF" d="M607.6182,607.4086c0,29.8992-24.2552,54.1272-54.1088,54.1272c-29.9171,0-54.1173-24.228-54.1173-54.1272
		c0-29.8851,24.2002-54.1404,54.1173-54.1404C583.3629,553.2682,607.6182,577.5236,607.6182,607.4086z"/>
</g>
</svg>
